<?xml version="1.0" standalone="no"?>
<!DOCTYPE svg PUBLIC "-//W3C//DTD SVG 20010904//EN"
 "http://www.w3.org/TR/2001/REC-SVG-20010904/DTD/svg10.dtd">
<svg version="1.0" xmlns="http://www.w3.org/2000/svg"
 width="256.000000pt" height="256.000000pt" viewBox="0 0 256.000000 256.000000"
 preserveAspectRatio="xMidYMid meet">
<metadata>
Created by potrace 1.14, written by Peter Selinger 2001-2017
</metadata>
<g transform="translate(0.000000,256.000000) scale(0.100000,-0.100000)"
fill="#000000" stroke="none">
<path d="M783 2010 c-45 -10 -78 -34 -145 -103 -50 -52 -57 -64 -63 -112 -12
-95 12 -153 89 -221 69 -60 102 -84 123 -86 14 -2 94 19 208 56 6 2 13 4 18 5
4 0 34 14 67 31 45 23 67 42 94 82 19 29 45 66 57 81 l21 28 -40 -2 c-48 -3
-106 33 -212 132 -110 102 -153 124 -217 109z m-119 -115 c-4 -8 -10 -15 -14
-15 -4 0 -19 -27 -34 -60 l-27 -60 31 -65 c20 -42 40 -69 54 -75 27 -10 113
-4 151 10 52 20 59 9 9 -14 -28 -13 -54 -28 -58 -34 -7 -12 52 -65 64 -57 5 3
11 1 15 -5 6 -10 -16 -14 -62 -12 -24 1 -111 62 -155 108 -33 35 -58 93 -58
132 0 40 26 101 58 135 29 31 34 33 26 12z"/>
<path d="M1823 1984 c-29 -8 -70 -22 -91 -33 -37 -19 -163 -113 -211 -157 -14
-13 -36 -25 -48 -25 -13 -1 -27 -3 -33 -4 -5 -1 -15 -3 -20 -4 -16 -2 8 -41
24 -41 8 0 17 -7 20 -15 3 -9 20 -38 38 -66 50 -75 141 -126 281 -154 10 -2
33 10 52 26 18 16 60 43 92 60 90 45 123 77 128 124 4 38 4 39 -4 7 -5 -18
-19 -45 -32 -59 -30 -32 -159 -98 -159 -81 0 6 -12 25 -27 41 l-28 29 30 -8
c17 -4 39 -10 50 -14 21 -8 58 4 86 27 9 7 18 11 21 8 3 -3 13 7 23 21 26 40
25 117 -3 151 -12 16 -31 46 -42 68 -16 31 -16 34 -3 15 10 -13 26 -31 36 -40
21 -17 47 -74 47 -101 0 -11 5 -19 10 -19 26 0 -3 73 -58 148 -27 37 -52 75
-55 85 -4 9 -14 17 -24 18 -10 0 -25 2 -33 3 -8 2 -39 -3 -67 -10z m80 -299
c29 -8 35 -22 12 -31 -17 -7 -115 24 -115 36 0 9 59 6 103 -5z"/>
<path d="M1292 1783 c-6 -2 -10 -9 -7 -13 3 -5 12 -7 20 -4 7 3 26 -2 42 -12
l28 -18 -24 27 c-24 27 -34 30 -59 20z"/>
<path d="M1257 1703 c-14 -4 -16 -8 -6 -19 8 -10 16 -11 30 -3 11 5 36 7 57 4
35 -6 36 -5 18 9 -19 15 -61 19 -99 9z"/>
<path d="M1340 1645 c7 -8 19 -15 26 -15 8 0 19 -9 26 -20 16 -25 28 -26 28 0
0 21 -26 39 -68 46 -22 4 -24 3 -12 -11z"/>
<path d="M1237 1630 c-14 -11 -29 -20 -35 -20 -5 0 -17 -9 -27 -20 -18 -19
-17 -20 6 -20 27 1 124 79 98 80 -9 0 -28 -9 -42 -20z"/>
<path d="M2070 1636 c0 -8 5 -18 10 -21 11 -7 7 -128 -5 -158 -11 -26 -102
-63 -152 -61 -46 2 -95 -22 -113 -55 -8 -17 -8 -21 3 -21 8 0 17 3 20 6 10 10
120 54 135 54 40 0 141 74 143 104 2 40 10 69 29 106 24 48 20 62 -11 35 -17
-17 -22 -17 -29 -5 -6 8 -10 18 -10 23 0 14 -20 7 -20 -7z"/>
<path d="M537 1623 c-13 -16 -14 -21 -2 -43 19 -33 18 -54 0 -91 -15 -28 -15
-30 9 -39 33 -12 74 -58 87 -97 12 -36 20 -40 39 -18 7 8 16 13 20 10 9 -6 35
23 28 31 -3 3 -15 6 -27 7 -11 1 -21 5 -21 10 0 4 -9 17 -20 29 -11 12 -20 28
-20 35 0 7 -4 14 -10 14 -5 1 -16 2 -22 3 -9 1 -12 19 -10 58 2 57 -10 108
-26 108 -5 0 -16 -8 -25 -17z"/>
<path d="M1257 1575 c-26 -24 -47 -48 -47 -55 0 -6 -8 -9 -19 -5 -20 6 -39
-11 -44 -41 -3 -22 -77 -102 -110 -119 -12 -7 -21 -16 -20 -22 1 -6 -2 -25 -7
-42 -5 -17 -5 -31 -1 -31 3 0 13 20 20 45 15 50 46 65 36 18 -5 -22 -2 -19 14
12 11 22 27 49 36 60 14 17 17 18 25 5 9 -13 11 -13 20 0 5 8 12 32 15 52 8
48 22 57 23 16 1 -37 -11 -63 -47 -101 -23 -25 -26 -36 -25 -100 0 -63 4 -77
30 -114 34 -49 73 -63 108 -40 12 9 23 24 23 34 0 10 1 52 2 93 2 62 4 71 12
50 6 -14 12 -52 13 -85 5 -114 37 -131 114 -63 26 24 49 44 52 46 14 10 4 154
-16 226 -13 44 -21 83 -18 87 8 13 -81 99 -113 108 -27 8 -35 4 -76 -34z m81
-210 c-3 -3 -9 2 -12 12 -6 14 -5 15 5 6 7 -7 10 -15 7 -18z m18 -85 c2 -19 0
-16 -11 10 -7 19 -14 42 -14 50 0 21 21 -30 25 -60z m-85 27 c-10 -9 -11 -8
-5 6 3 10 9 15 12 12 3 -3 0 -11 -7 -18z m-95 -140 c27 -33 58 -35 78 -5 18
25 21 17 6 -13 -11 -19 -55 -26 -76 -11 -18 12 -44 56 -43 72 0 13 1 13 7 -1
4 -8 17 -27 28 -42z m284 39 c0 -18 -78 -88 -92 -84 -15 5 -30 48 -18 48 6 0
10 -7 10 -15 0 -20 16 -19 39 3 11 9 27 23 36 30 8 7 13 17 10 23 -4 5 -1 9 4
9 6 0 11 -6 11 -14z m-180 -6 c0 -5 -2 -10 -4 -10 -3 0 -8 5 -11 10 -3 6 -1
10 4 10 6 0 11 -4 11 -10z"/>
<path d="M1470 1558 c0 -6 21 -31 46 -55 25 -23 43 -43 40 -43 -3 0 1 -16 9
-36 18 -44 20 -63 4 -47 -8 8 -20 8 -36 2 -26 -10 -35 4 -48 75 -7 36 -25 60
-25 33 0 -8 11 -48 24 -88 13 -41 24 -99 25 -129 2 -53 13 -81 27 -67 4 3 1
20 -6 37 -17 41 -9 46 27 16 28 -23 43 -25 43 -5 0 5 -16 23 -35 41 -20 17
-34 36 -32 42 5 14 57 27 57 14 0 -6 6 -5 15 2 8 7 15 9 15 5 0 -4 7 -1 16 6
15 12 14 14 -7 19 -14 4 -25 16 -30 33 l-7 27 25 -20 c14 -11 35 -20 47 -20
17 1 11 10 -34 50 -58 52 -59 57 -13 39 26 -9 27 -9 12 7 -9 9 -31 17 -47 19
-17 1 -45 14 -62 28 -34 29 -50 34 -50 15z"/>
<path d="M1071 1539 c-13 -5 -41 -23 -62 -40 -22 -17 -53 -33 -70 -36 -37 -5
-80 -21 -61 -22 10 -1 9 -6 -2 -23 -20 -33 -29 -68 -17 -68 6 0 17 12 25 28
24 46 55 72 85 72 15 0 41 11 57 25 16 14 34 25 41 25 14 0 43 28 43 41 0 11
-8 11 -39 -2z"/>
<path d="M842 1433 c-7 -2 -17 -14 -23 -25 -11 -20 -11 -20 15 -2 20 15 36 37
24 33 -2 0 -9 -3 -16 -6z"/>
<path d="M2253 1393 c-12 -26 -2 -73 16 -73 5 0 17 -3 26 -6 13 -6 13 1 -6 47
-11 30 -21 55 -22 56 -1 1 -8 -10 -14 -24z"/>
<path d="M345 1256 c-21 -50 -10 -87 45 -144 44 -46 50 -49 87 -45 35 4 46 0
77 -27 24 -22 36 -27 36 -17 0 8 -10 22 -22 30 -19 13 -20 16 -5 16 9 1 17 6
17 12 0 7 -24 9 -72 6 -40 -3 -59 -2 -43 1 17 4 87 36 157 71 122 62 129 64
155 50 16 -8 37 -22 47 -31 10 -10 22 -16 25 -13 10 5 7 -38 -2 -52 -11 -18
-1 -16 29 3 23 16 25 15 43 -5 21 -25 33 -27 25 -6 -4 8 -2 15 4 15 7 0 10 94
3 119 -3 9 -34 -26 -42 -48 l-10 -24 -27 31 c-15 17 -31 38 -37 47 -21 34 -63
25 -150 -32 -27 -18 -54 -33 -58 -33 -5 0 -21 -9 -36 -19 -89 -64 -211 -6
-205 97 3 44 -23 43 -41 -2z"/>
<path d="M1822 1263 c-31 -15 -53 -41 -65 -78 -6 -16 -3 -15 13 5 11 14 25 31
30 38 21 24 54 12 102 -38 35 -37 66 -57 114 -75 42 -16 64 -20 62 -12 -3 6
-30 20 -61 30 -32 10 -55 22 -53 26 3 4 -7 20 -20 37 -14 16 -29 34 -32 39 -4
6 -19 18 -33 27 -23 15 -29 15 -57 1z"/>
<path d="M2177 1273 c-8 -13 -1 -72 14 -111 5 -14 8 -26 7 -27 -2 -1 -22 -12
-45 -25 -24 -13 -43 -29 -43 -36 0 -24 -64 -64 -90 -57 -24 5 -24 5 -5 -10 11
-8 24 -12 30 -9 5 3 17 7 25 7 8 1 47 27 87 59 64 52 70 59 64 84 -6 22 -2 31
21 50 26 22 38 52 21 52 -5 0 -21 -12 -38 -26 l-30 -26 -5 44 c-3 24 -8 38
-13 31z"/>
<path d="M1658 1087 c-35 -38 -48 -60 -48 -82 0 -18 -15 -54 -35 -84 -37 -58
-38 -87 -1 -48 37 40 66 92 66 119 0 24 19 54 67 106 13 14 23 29 23 33 0 22
-29 4 -72 -44z"/>
<path d="M1460 1097 c-37 -19 -69 -95 -43 -104 7 -3 16 9 20 26 5 21 19 37 42
49 19 9 37 23 39 30 5 16 -26 15 -58 -1z"/>
<path d="M1060 1091 c0 -14 27 -39 49 -46 10 -3 23 -17 29 -30 6 -14 19 -25
28 -25 15 0 15 2 2 23 -8 12 -21 32 -28 44 -20 31 -80 57 -80 34z"/>
<path d="M1252 1013 c-7 -3 -16 -13 -22 -22 -8 -17 -6 -17 37 -8 39 9 47 9 58
-6 13 -17 45 -24 45 -9 0 28 -80 58 -118 45z"/>
<path d="M1405 920 c-18 -36 -19 -50 -2 -50 11 0 37 51 37 73 0 18 -21 4 -35
-23z"/>
<path d="M1288 848 c-5 -44 -4 -69 3 -74 9 -5 10 -3 13 54 2 30 -12 47 -16 20z"/>
</g>
</svg>
